<?xml version="1.0" standalone="no"?>
<!DOCTYPE svg PUBLIC "-//W3C//DTD SVG 20010904//EN"
 "http://www.w3.org/TR/2001/REC-SVG-20010904/DTD/svg10.dtd">
<svg version="1.0" xmlns="http://www.w3.org/2000/svg"
 width="640.000000pt" height="640.000000pt" viewBox="0 0 640.000000 640.000000"
 preserveAspectRatio="xMidYMid meet">
<metadata>
Created by potrace 1.14, written by Peter Selinger 2001-2017
</metadata>
<g transform="translate(0.000000,640.000000) scale(0.100000,-0.100000)"
fill="#000000" stroke="none">
<path d="M0 3200 l0 -3200 3200 0 3200 0 0 3200 0 3200 -3200 0 -3200 0 0
-3200z m3519 2534 c307 -41 558 -117 830 -253 129 -65 304 -171 356 -216 37
-33 15 -23 -45 20 -284 202 -658 355 -1029 421 -117 21 -190 27 -368 31 -323
8 -545 -21 -828 -106 -71 -22 -131 -38 -133 -36 -2 2 47 20 110 40 185 60 413
102 653 119 90 6 337 -5 454 -20z m116 -125 c94 -11 213 -29 265 -40 157 -33
376 -102 395 -124 6 -6 15 -10 21 -8 16 5 208 -86 310 -148 48 -28 95 -52 105
-53 29 -2 197 -145 367 -312 122 -120 152 -154 146 -170 -4 -13 -3 -15 3 -6 7
10 25 -7 70 -65 75 -99 143 -199 143 -212 0 -6 4 -11 9 -11 14 0 165 -312 206
-424 48 -131 99 -333 121 -481 25 -166 25 -515 1 -675 -34 -222 -96 -457 -181
-690 -38 -102 -151 -315 -235 -441 -323 -486 -790 -839 -1343 -1014 -143 -45
-352 -89 -356 -76 -2 7 -9 5 -18 -3 -35 -35 -538 -43 -754 -12 -372 53 -618
127 -900 271 -754 387 -1277 1136 -1375 1971 -30 254 -16 588 35 831 158 759
661 1410 1360 1762 140 70 248 117 255 110 2 -3 -56 -31 -129 -62 -441 -192
-844 -533 -1112 -942 -227 -347 -363 -733 -405 -1150 -15 -148 -6 -480 16
-620 108 -686 490 -1305 1050 -1702 195 -138 456 -270 675 -342 99 -33 81 -18
-30 24 -55 20 -100 42 -100 47 0 5 -4 7 -8 4 -11 -7 -196 88 -302 154 -533
333 -919 847 -1090 1450 -27 97 -35 137 -26 143 8 5 7 10 -3 16 -21 13 -48
193 -62 414 -30 448 54 856 256 1245 90 172 276 442 305 442 6 0 10 5 10 12 0
17 212 229 325 325 145 122 317 234 500 323 191 94 308 138 487 184 332 85
608 100 993 55z"/>
<path d="M3520 5599 c0 -5 5 -7 10 -4 6 3 10 8 10 11 0 2 -4 4 -10 4 -5 0 -10
-5 -10 -11z"/>
<path d="M2655 5524 c-174 -47 -475 -160 -475 -179 0 -2 30 8 68 22 37 14 116
41 176 59 60 18 127 40 150 49 23 9 95 32 161 50 78 22 108 34 85 34 -19 0
-93 -16 -165 -35z"/>
<path d="M3570 5509 c0 -8 -20 -9 -67 -4 -52 5 -65 4 -57 -5 7 -7 25 -13 40
-15 115 -12 295 -60 446 -119 457 -176 838 -482 1110 -891 103 -156 295 -542
347 -700 80 -244 118 -513 108 -765 -6 -162 -25 -303 -38 -294 -5 3 -9 1 -9
-5 0 -5 4 -11 9 -13 12 -4 -46 -232 -89 -353 -152 -428 -450 -807 -839 -1070
-119 -80 -384 -218 -410 -213 -19 4 -27 28 -9 28 7 0 71 29 142 65 71 35 133
62 139 58 5 -3 7 -1 4 4 -4 6 20 27 55 48 105 62 248 175 364 287 61 59 115
104 119 100 5 -4 5 -1 0 6 -4 9 4 25 23 45 88 94 223 303 302 469 115 242 199
575 200 790 0 37 4 69 8 72 8 4 3 73 -18 293 -12 124 -47 304 -62 318 -8 7 -9
5 -5 -7 4 -10 14 -68 23 -130 24 -153 24 -470 1 -629 -59 -404 -211 -768 -453
-1089 -92 -122 -223 -262 -236 -253 -6 3 -8 1 -5 -4 4 -6 -23 -38 -61 -70
-148 -131 -295 -234 -457 -319 -87 -46 -105 -60 -103 -77 3 -17 -9 -25 -77
-49 -124 -44 -23 -24 120 24 336 113 643 304 900 563 242 242 422 523 531 827
22 59 45 108 52 108 14 0 16 16 4 24 -5 3 2 47 15 98 50 199 66 334 65 573 -1
490 -164 970 -466 1365 -55 72 -62 86 -48 92 14 6 13 7 -4 5 -16 -1 -46 24
-109 91 -360 382 -867 637 -1397 702 -54 7 -95 16 -92 21 3 5 0 9 -5 9 -6 0
-11 -5 -11 -11z"/>
<path d="M2975 5461 c-145 -13 -387 -92 -590 -193 -239 -119 -411 -243 -612
-442 -78 -77 -140 -142 -137 -145 2 -3 24 14 47 37 24 24 47 39 52 35 4 -5 5
-3 2 3 -15 26 232 220 411 323 479 274 1071 356 1611 225 220 -54 467 -158
638 -269 47 -31 98 -64 112 -72 l26 -15 -25 22 c-14 13 -24 26 -23 30 1 4 -3
7 -10 7 -7 1 -64 35 -127 77 -218 146 -507 270 -760 326 -111 25 -105 24 -235
38 -148 16 -290 21 -380 13z"/>
<path d="M4460 5320 c0 -5 5 -10 10 -10 6 0 10 5 10 10 0 6 -4 10 -10 10 -5 0
-10 -4 -10 -10z"/>
<path d="M3050 5309 c-531 -50 -1005 -281 -1370 -666 -50 -53 -105 -116 -122
-140 -17 -24 -35 -43 -40 -43 -4 0 -8 -4 -8 -10 0 -5 -20 -37 -44 -72 -66 -94
-156 -262 -200 -371 -22 -53 -44 -93 -49 -90 -6 3 -7 1 -3 -5 3 -6 -9 -64 -28
-129 -44 -152 -74 -337 -80 -488 -3 -66 -3 -110 0 -97 3 12 10 20 15 17 5 -4
9 1 9 9 0 9 -4 16 -8 16 -20 0 40 382 63 403 7 6 10 18 8 27 -2 8 15 69 37
135 232 678 806 1207 1510 1394 175 46 287 61 500 68 297 8 549 -30 800 -122
52 -19 96 -32 98 -30 7 7 -89 46 -222 90 -280 94 -587 131 -866 104z"/>
<path d="M2560 5230 c0 -5 5 -10 10 -10 6 0 10 5 10 10 0 6 -4 10 -10 10 -5 0
-10 -4 -10 -10z"/>
<path d="M3100 5230 c-41 -4 -94 -11 -117 -15 -29 -4 -43 -3 -43 4 0 6 -4 11
-10 11 -5 0 -10 -6 -10 -13 0 -8 -32 -19 -87 -30 -472 -98 -956 -407 -1246
-798 -43 -57 -87 -115 -97 -127 -11 -13 -20 -26 -20 -28 0 -2 -25 -48 -55
-103 -285 -509 -351 -1142 -176 -1677 81 -250 263 -535 481 -755 403 -407 942
-631 1514 -630 211 1 453 33 577 76 22 8 39 10 39 5 0 -6 5 -10 11 -10 5 0 8
4 5 9 -5 8 179 80 214 84 8 1 17 5 20 8 3 4 39 23 80 44 255 127 531 343 692
541 39 48 56 63 70 58 10 -3 18 -1 18 5 0 6 -8 11 -17 11 -14 0 -14 3 4 23 35
38 125 178 173 268 31 59 50 84 60 82 11 -4 12 -2 2 4 -10 8 -7 22 13 67 154
349 212 805 150 1185 -14 86 -15 105 -3 113 10 8 9 8 -4 4 -13 -4 -18 0 -18
15 0 26 -31 126 -83 269 -23 63 -41 121 -41 128 1 6 -2 12 -6 12 -4 0 -29 42
-55 92 -130 255 -312 478 -520 635 -436 329 -980 485 -1515 433z m-1080 -1915
c26 -13 28 -18 18 -34 -11 -18 -14 -18 -39 -5 -42 21 -67 17 -100 -15 -20 -20
-29 -39 -29 -61 0 -22 9 -41 29 -61 34 -33 74 -38 110 -13 19 14 25 14 32 3
14 -22 11 -27 -23 -45 -44 -23 -121 -14 -153 16 -63 59 -50 175 24 215 34 19
95 19 131 0z m220 -40 l0 -55 60 0 60 0 0 56 c0 52 1 55 23 52 21 -3 22 -7 25
-130 l3 -128 -26 0 c-24 0 -25 3 -25 55 l0 56 -57 -3 -58 -3 -1 -50 c-1 -43
-4 -50 -22 -53 -22 -3 -22 -1 -22 127 0 124 1 131 20 131 18 0 20 -7 20 -55z
m488 33 c3 -14 -6 -17 -50 -20 -52 -3 -53 -4 -56 -35 -3 -33 -3 -33 42 -33 39
0 46 -3 46 -20 0 -17 -7 -20 -45 -20 -45 0 -45 0 -45 -35 l0 -35 55 0 c49 0
55 -2 55 -20 0 -19 -5 -21 -77 -18 l-78 3 -3 114 c-1 63 0 121 3 128 3 10 23
13 77 11 59 -2 73 -6 76 -20z m283 12 c20 -11 25 -35 10 -44 -4 -3 -22 0 -39
6 -27 11 -35 10 -49 -5 -16 -15 -16 -18 2 -37 10 -11 24 -20 31 -20 23 0 74
-51 74 -75 0 -12 -9 -34 -21 -49 -16 -21 -29 -26 -64 -26 -49 0 -90 26 -76 49
7 11 15 11 44 1 81 -30 94 24 15 67 -48 25 -53 32 -56 65 -2 27 2 41 19 57 25
23 77 28 110 11z m227 -47 l3 -53 54 0 54 0 3 53 c3 45 6 52 26 55 22 3 22 3
22 -127 l0 -131 -25 0 c-24 0 -25 3 -25 55 l0 55 -54 0 -55 0 -3 -52 c-3 -46
-6 -53 -25 -56 -23 -3 -23 -3 -23 128 0 131 0 131 23 128 19 -3 22 -10 25 -55z
m372 -73 c0 -123 -1 -130 -20 -130 -19 0 -20 7 -20 130 0 123 1 130 20 130 19
0 20 -7 20 -130z m322 100 c23 -28 19 -83 -6 -108 -13 -13 -12 -21 10 -63 29
-59 29 -59 2 -59 -17 0 -30 12 -48 48 -17 32 -31 47 -45 47 -17 0 -20 -8 -23
-48 -3 -43 -5 -48 -25 -45 -21 3 -22 8 -25 117 -1 63 0 121 3 129 4 11 20 13
71 10 56 -3 70 -8 86 -28z m328 10 c0 -17 -7 -20 -50 -20 l-50 0 0 -35 c0 -34
1 -35 40 -35 33 0 40 -3 40 -20 0 -17 -7 -20 -40 -20 -39 0 -40 -1 -40 -35 l0
-35 55 0 c48 0 55 -2 55 -20 0 -18 -7 -20 -80 -20 l-80 0 0 130 0 130 75 0
c68 0 75 -2 75 -20z m291 10 c21 -12 23 -18 11 -38 -7 -10 -15 -10 -37 -2 -66
25 -92 -28 -27 -57 59 -27 72 -42 72 -84 0 -45 -27 -69 -77 -69 -40 0 -83 19
-83 36 0 22 18 26 55 13 31 -11 37 -11 52 4 16 15 15 18 -2 37 -10 11 -24 20
-31 20 -7 0 -26 12 -43 26 -38 32 -40 66 -6 99 26 27 80 34 116 15z"/>
<path d="M3827 3283 c-4 -3 -7 -22 -7 -40 0 -33 1 -34 38 -31 31 2 38 7 40 27
5 36 -48 68 -71 44z"/>
<path d="M1975 5177 c-163 -101 -220 -140 -310 -211 -54 -44 -137 -117 -184
-163 -46 -46 -89 -83 -94 -83 -6 0 -8 -3 -4 -6 3 -4 -21 -38 -54 -78 -95 -111
-215 -298 -290 -451 -216 -442 -281 -935 -188 -1423 17 -86 18 -106 7 -119
-11 -14 -11 -15 2 -11 11 4 24 -24 56 -121 208 -645 668 -1144 1305 -1416 45
-20 84 -34 86 -31 2 2 -31 23 -74 46 -566 310 -998 860 -1162 1480 -43 162
-61 270 -47 270 8 0 8 2 0 8 -30 18 -49 474 -21 485 9 4 9 7 0 14 -10 7 -10
35 2 134 37 299 133 603 269 853 90 165 246 386 272 386 7 0 11 6 8 13 -11 29
257 280 462 434 43 32 17 26 -41 -10z"/>
<path d="M1865 4980 c-3 -5 3 -10 14 -10 12 0 21 5 21 10 0 6 -6 10 -14 10 -8
0 -18 -4 -21 -10z"/>
<path d="M4845 4610 c3 -5 8 -10 11 -10 2 0 4 5 4 10 0 6 -5 10 -11 10 -5 0
-7 -4 -4 -10z"/>
<path d="M4890 4591 c0 -5 5 -13 10 -16 6 -3 10 -2 10 4 0 5 -4 13 -10 16 -5
3 -10 2 -10 -4z"/>
<path d="M5345 4580 c-3 -5 -1 -10 4 -10 6 0 11 5 11 10 0 6 -2 10 -4 10 -3 0
-8 -4 -11 -10z"/>
<path d="M5425 4350 c3 -5 8 -10 11 -10 2 0 4 5 4 10 0 6 -5 10 -11 10 -5 0
-7 -4 -4 -10z"/>
<path d="M1270 4240 c0 -5 5 -10 10 -10 6 0 10 5 10 10 0 6 -4 10 -10 10 -5 0
-10 -4 -10 -10z"/>
<path d="M5170 4170 c0 -5 5 -10 10 -10 6 0 10 5 10 10 0 6 -4 10 -10 10 -5 0
-10 -4 -10 -10z"/>
<path d="M5336 3721 c-13 -5 -16 -10 -9 -14 7 -4 15 -2 18 4 4 5 14 8 22 5 8
-3 11 -1 8 4 -7 11 -12 12 -39 1z"/>
<path d="M1010 3390 c0 -5 5 -10 10 -10 6 0 10 5 10 10 0 6 -4 10 -10 10 -5 0
-10 -4 -10 -10z"/>
<path d="M1020 3315 c0 -8 5 -15 10 -15 6 0 10 7 10 15 0 8 -4 15 -10 15 -5 0
-10 -7 -10 -15z"/>
<path d="M5730 3210 c0 -5 5 -10 10 -10 6 0 10 5 10 10 0 6 -4 10 -10 10 -5 0
-10 -4 -10 -10z"/>
<path d="M5742 3004 c1 -9 9 -19 16 -22 9 -3 13 2 10 14 -1 9 -9 19 -16 22 -9
3 -13 -2 -10 -14z"/>
<path d="M5710 2990 c0 -5 5 -10 10 -10 6 0 10 5 10 10 0 6 -4 10 -10 10 -5 0
-10 -4 -10 -10z"/>
<path d="M5715 2920 c3 -5 8 -10 11 -10 2 0 4 5 4 10 0 6 -5 10 -11 10 -5 0
-7 -4 -4 -10z"/>
<path d="M5530 2213 c1 -11 26 -43 34 -43 11 0 6 21 -8 36 -16 15 -26 18 -26
7z"/>
<path d="M1013 2098 c25 -61 125 -235 189 -332 294 -440 708 -770 1205 -957
208 -79 504 -142 698 -150 28 -1 56 -7 63 -12 6 -5 12 -6 12 -1 0 5 30 7 67 6
57 -3 280 11 373 23 96 12 420 101 495 135 111 51 161 70 172 66 35 -14 301
138 483 275 210 158 392 346 547 565 62 88 137 208 121 194 -4 -3 -50 -65
-103 -139 -131 -182 -202 -268 -320 -386 -177 -177 -390 -335 -607 -450 -58
-30 -109 -55 -114 -55 -5 0 45 29 110 65 144 80 282 171 396 262 99 79 297
268 312 298 6 11 -20 -10 -58 -46 -265 -252 -610 -447 -979 -554 -358 -103
-753 -122 -1114 -54 -58 11 -166 31 -240 44 -261 47 -441 104 -649 206 -264
129 -436 251 -642 458 -152 153 -248 275 -350 447 -77 130 -89 146 -67 92z"/>
<path d="M5390 2040 c0 -5 5 -10 11 -10 5 0 7 5 4 10 -3 6 -8 10 -11 10 -2 0
-4 -4 -4 -10z"/>
<path d="M4430 1370 c-30 -21 -219 -130 -226 -130 -3 0 -2 5 1 10 3 6 1 10 -4
10 -6 0 -11 -6 -11 -14 0 -27 -238 -118 -435 -167 -193 -47 -348 -62 -580 -56
-111 3 -242 13 -295 21 -228 39 -489 128 -672 230 -54 29 -98 52 -98 50 0 -9
142 -95 243 -147 142 -74 288 -130 450 -174 72 -20 136 -41 140 -47 6 -8 10
-8 13 0 3 8 24 7 72 -2 37 -7 108 -13 157 -14 57 0 95 -4 103 -12 9 -9 12 -9
12 0 0 7 15 12 38 12 90 0 338 55 487 107 55 19 107 36 115 37 8 0 17 3 20 6
3 3 66 36 140 72 74 37 183 98 241 136 58 38 112 71 120 74 7 2 9 7 3 10 -5 4
-20 -2 -34 -12z"/>
<path d="M3540 1070 c0 -5 5 -10 10 -10 6 0 10 5 10 10 0 6 -4 10 -10 10 -5 0
-10 -4 -10 -10z"/>
<path d="M3150 1050 c0 -5 5 -10 11 -10 5 0 7 5 4 10 -3 6 -8 10 -11 10 -2 0
-4 -4 -4 -10z"/>
<path d="M3890 1050 c0 -5 5 -10 10 -10 6 0 10 5 10 10 0 6 -4 10 -10 10 -5 0
-10 -4 -10 -10z"/>
<path d="M3905 1010 c3 -5 8 -10 11 -10 2 0 4 5 4 10 0 6 -5 10 -11 10 -5 0
-7 -4 -4 -10z"/>
<path d="M3670 960 c0 -5 5 -10 11 -10 5 0 7 5 4 10 -3 6 -8 10 -11 10 -2 0
-4 -4 -4 -10z"/>
<path d="M3880 960 c0 -5 5 -10 10 -10 6 0 10 5 10 10 0 6 -4 10 -10 10 -5 0
-10 -4 -10 -10z"/>
<path d="M2675 930 c-3 -5 1 -10 10 -10 9 0 13 5 10 10 -3 6 -8 10 -10 10 -2
0 -7 -4 -10 -10z"/>
<path d="M3650 919 c0 -5 5 -7 10 -4 6 3 10 8 10 11 0 2 -4 4 -10 4 -5 0 -10
-5 -10 -11z"/>
<path d="M2855 900 c3 -5 8 -10 11 -10 2 0 4 5 4 10 0 6 -5 10 -11 10 -5 0 -7
-4 -4 -10z"/>
<path d="M3730 900 c0 -5 5 -10 10 -10 6 0 10 5 10 10 0 6 -4 10 -10 10 -5 0
-10 -4 -10 -10z"/>
</g>
</svg>
